<?xml version="1.0" standalone="no"?><!DOCTYPE svg PUBLIC "-//W3C//DTD SVG 1.1//EN" "http://www.w3.org/Graphics/SVG/1.1/DTD/svg11.dtd"><svg t="1638952748835" class="icon" viewBox="0 0 1029 1024" version="1.1" xmlns="http://www.w3.org/2000/svg" p-id="3763" xmlns:xlink="http://www.w3.org/1999/xlink" width="128.625" height="128"><defs><style type="text/css"></style></defs><path d="M1028.848398 511.969282c0 282.758342-229.216059 511.974401-511.974402 511.974401s-511.974401-229.216059-511.974401-511.974401 229.216059-511.974401 511.974401-511.974402 511.974401 229.216059 511.974402 511.974402" fill="#212121" p-id="3764"></path><path d="M516.873996 612.439138L416.39902 511.969282l100.474976-100.474977 100.474977 100.474977zM745.20434 511.969282l-0.424939 0.419819 93.189581 93.18446 93.604279-93.604279-94.249367-94.254488-93.189581 93.184461z" fill="#F4BB0B" p-id="3765"></path><path d="M355.381911 445.131023l161.492085-161.492085 163.867647 163.867647 93.179341-93.179341-257.046988-257.057228-254.676546 254.676547zM681.386731 575.786891l-164.512735 164.512734-163.053607-163.058727-93.184461 93.184461 256.238068 256.243188 257.697195-257.697196zM288.548773 511.969282l3.440468-3.440468L198.79966 415.339233 102.179851 511.969282l95.063407 95.063406 93.179341-93.18446z" fill="#F4BB0B" p-id="3766"></path></svg>