<?xml version="1.0" standalone="no"?><!DOCTYPE svg PUBLIC "-//W3C//DTD SVG 1.1//EN" "http://www.w3.org/Graphics/SVG/1.1/DTD/svg11.dtd"><svg t="1638967279122" class="icon" viewBox="0 0 1223 1024" version="1.1" xmlns="http://www.w3.org/2000/svg" p-id="7345" xmlns:xlink="http://www.w3.org/1999/xlink" width="152.875" height="128"><defs><style type="text/css"></style></defs><path d="M389.549109 984.530818h305.28599l246.969675-179.437438 94.338058-290.347092-94.338058-290.347091L694.835099 44.961759H389.549109L142.573745 224.399197 48.241376 514.746288l94.338058 290.347092 246.975364 179.437438z m310.724522 16.753638H384.110577l-2.201582-1.592876-253.585798-184.250198L30.611656 514.746288l97.705852-300.695094L384.110577 28.20812h316.168743l255.787379 185.843074 97.705853 300.695094-97.705853 300.695094-255.787379 185.843074z" fill="#2EA6DF" p-id="7346"></path><path d="M419.074197 36.587784a36.58494 36.58494 0 1 1-73.175568 0 36.58494 36.58494 0 0 1 73.175568 0M733.303045 36.587784a36.590628 36.590628 0 1 1-73.175568-0.005689 36.590628 36.590628 0 0 1 73.175568 0.005689M421.668308 987.403683a36.58494 36.58494 0 1 1-73.175568 0 36.58494 36.58494 0 0 1 73.175568 0M170.284092 810.651378a36.590628 36.590628 0 1 1-73.175568-0.005689 36.590628 36.590628 0 0 1 73.175568 0.005689M76.0143 514.746288A36.590628 36.590628 0 1 1 2.844421 514.734911a36.590628 36.590628 0 0 1 73.175568 0M170.284092 220.16101a36.590628 36.590628 0 1 1-73.175568 0 36.590628 36.590628 0 0 1 73.175568 0M1008.284575 514.080694a36.590628 36.590628 0 1 0 73.175568-0.005689 36.590628 36.590628 0 0 0-73.175568 0.011378M914.014783 219.495415a36.58494 36.58494 0 1 0 73.175568 0 36.58494 36.58494 0 0 0-73.175568 0M735.891468 987.403683a36.590628 36.590628 0 1 1-73.175568-0.005689 36.590628 36.590628 0 0 1 73.175568 0.005689" fill="#2EA6DF" p-id="7347"></path><path d="M348.54394 730.216848l2.611178 0.870393 204.223721 68.55054 230.779232-69.506265 156.067677 66.303447V232.164465l-156.067677 66.297759-230.779232-69.500576-206.834899 69.420932-2.628245-0.83626-203.836879-65.865406v565.237601l206.465124-66.701667z m610.435446 91.544837l-173.794107-73.829784-230.079505 69.301466-206.664233-69.38111-223.116363 72.100377V208.646795l223.116363 72.100377 206.664233-69.381111 2.548601 0.779371 227.530904 68.522096 173.794107-73.829785V821.761685z" fill="#2EA6DF" p-id="7348"></path><path d="M39.423671 523.125952L39.423671 506.372314l1005.445844-0.665595 0.017067 16.753638z" fill="#2EA6DF" p-id="7349"></path><path d="M564.924715 221.332911L684.925137 491.524437l91.721191-202.363469-82.715755-235.239284-129.005858 167.405538zM357.08858 288.51244l80.787238 203.563815 107.604436-270.060683L388.445474 55.150474l-31.356894 233.356277zM145.287323 514.734911l200.24722 209.081991L428.847626 514.734911 345.528854 304.81666l-200.241531 209.918251z m301.593931 0l108.702383 271.977822 120.102821-274.697089-120.028866-270.276858-108.776338 272.996125z m-89.769919 225.306566l33.751897 229.12378 154.605645-162.615534L437.870129 537.353744l-80.758794 202.693422z m207.841824 67.088508l131.40086 163.241306 80.315064-230.966964-91.766702-206.635789-119.949222 274.361447z m-185.655342 198.506435l-38.706877-262.739144-218.479958-228.13961 218.440136-229.010003 35.976233-267.728258L554.605156 207.264406 699.49426 19.236817l95.197073 270.720589-100.66405 222.069616 100.646984 226.626378-92.41523 265.776985-147.540104-183.283095-175.421116 184.48913z" fill="#2EA6DF" p-id="7350"></path><path d="M792.421485 743.995222l-13.49962-9.921339 161.290033-219.333284-161.301411-220.220742 13.522376-9.904273 168.560373 230.147771zM309.313689 289.564876a36.590628 36.590628 0 1 0 73.175568 0 36.590628 36.590628 0 0 0-73.175568 0M518.651678 220.16101a36.590628 36.590628 0 1 0 73.175568 0 36.590628 36.590628 0 0 0-73.175568 0" fill="#2EA6DF" p-id="7351"></path><path d="M811.541682 263.692025a36.579251 36.579251 0 0 0-51.740014 0 36.579251 36.579251 0 0 0 0 51.740013 36.590628 36.590628 0 0 0 51.740014-51.740013M170.284092 511.992889A36.590628 36.590628 0 1 0 97.108524 512.004267a36.590628 36.590628 0 0 0 73.175568 0M467.429349 511.992889A36.590628 36.590628 0 1 0 394.253781 512.004267a36.590628 36.590628 0 0 0 73.175568 0M716.19101 511.992889a36.58494 36.58494 0 1 0-73.175568 0 36.58494 36.58494 0 0 0 73.175568 0M987.184662 514.746288a36.590628 36.590628 0 1 0-73.175568-0.005689 36.590628 36.590628 0 0 0 73.175568 0M822.259459 739.028864a36.590628 36.590628 0 1 0-73.175568 0.005688 36.590628 36.590628 0 0 0 73.175568-0.005688M1219.807079 923.28475a51.768457 51.768457 0 1 0-103.531226 0 51.768457 51.768457 0 0 0 103.531226 0M540.997447 775.625181a36.58494 36.58494 0 1 0 28.478341 67.401394 36.58494 36.58494 0 0 0-28.478341-67.401394M331.659458 705.328167a36.58494 36.58494 0 1 0 28.48403 67.407082 36.58494 36.58494 0 0 0-28.478341-67.407082" fill="#2EA6DF" p-id="7352"></path><path d="M1164.136077 930.697311l-219.043153-112.986081 7.685625-14.893387 219.037464 112.986081z" fill="#2EA6DF" p-id="7353"></path></svg>