<?xml version="1.0" standalone="no"?><!DOCTYPE svg PUBLIC "-//W3C//DTD SVG 1.1//EN" "http://www.w3.org/Graphics/SVG/1.1/DTD/svg11.dtd"><svg t="1638957431532" class="icon" viewBox="0 0 1024 1024" version="1.1" xmlns="http://www.w3.org/2000/svg" p-id="2574" xmlns:xlink="http://www.w3.org/1999/xlink" width="200" height="200"><defs><style type="text/css"></style></defs><path d="M571.733333 533.333333c-25.6 0-46.933333 21.333333-46.933333 46.933334v46.933333c0 25.6 21.333333 46.933333 46.933333 46.933333s46.933333-21.333333 46.933334-46.933333v-46.933333c-4.266667-25.6-21.333333-46.933333-46.933334-46.933334z m243.2-183.466666C776.533333 217.6 652.8 128 512 128S247.466667 217.6 209.066667 349.866667C85.333333 379.733333 0 490.666667 0 618.666667 0 772.266667 123.733333 896 277.333333 896h469.333334c153.6 0 277.333333-123.733333 277.333333-277.333333 0-128-85.333333-238.933333-209.066667-268.8z m-469.333333 324.266666h59.733333c17.066667 0 34.133333 12.8 34.133334 34.133334s-12.8 34.133333-34.133334 34.133333H345.6C273.066667 742.4 213.333333 682.666667 213.333333 610.133333S273.066667 469.333333 345.6 469.333333h59.733333c17.066667 0 34.133333 12.8 34.133334 34.133334s-12.8 34.133333-34.133334 34.133333H345.6c-38.4 0-68.266667 29.866667-68.266667 68.266667s29.866667 68.266667 68.266667 68.266666z m332.8-46.933333c0 59.733333-51.2 110.933333-110.933333 110.933333s-110.933333-51.2-110.933334-110.933333v-46.933333c0-59.733333 51.2-110.933333 110.933334-110.933334s110.933333 51.2 110.933333 110.933334v46.933333z m128 110.933333h-89.6c-8.533333 0-17.066667-4.266667-21.333333-12.8-4.266667-8.533333 0-17.066667 8.533333-25.6l64-51.2V640s0-4.266667-4.266667-8.533333-8.533333-4.266667-12.8 0l-12.8 12.8c-8.533333 8.533333-21.333333 4.266667-29.866666-4.266667-8.533333-8.533333-4.266667-21.333333 4.266666-29.866667l12.8-12.8c21.333333-17.066667 51.2-17.066667 72.533334 4.266667 8.533333 8.533333 17.066667 25.6 17.066666 38.4s-8.533333 29.866667-21.333333 38.4l-17.066667 12.8h29.866667c12.8 0 21.333333 8.533333 21.333333 21.333333s-12.8 25.6-21.333333 25.6z" p-id="2575" fill="#1296db"></path></svg>