<?xml version="1.0" standalone="no"?><!DOCTYPE svg PUBLIC "-//W3C//DTD SVG 1.1//EN" "http://www.w3.org/Graphics/SVG/1.1/DTD/svg11.dtd"><svg t="1638967164009" class="icon" viewBox="0 0 1024 1024" version="1.1" xmlns="http://www.w3.org/2000/svg" p-id="5346" xmlns:xlink="http://www.w3.org/1999/xlink" width="128" height="128"><defs><style type="text/css"></style></defs><path d="M804 573.928C773.76 547.213 734.023 531 690.5 531c-34.53 0-66.677 10.205-93.588 27.763h-303.22c-6.627 0-12 5.373-12 12v77.52h246.054C522.072 665.325 519 683.554 519 702.5c0 44.49 16.94 85.022 44.723 115.5H222V165c0-13.255 10.745-24 24-24h558v432.928zM326.462 349.882c24.725 0 44.769-20.04 44.769-44.76 0-24.721-20.044-44.761-44.77-44.761-24.725 0-44.769 20.04-44.769 44.76s20.044 44.76 44.77 44.76z m86.615-89.521c-6.627 0-12 5.372-12 12v77.52h331.23c6.628 0 12-5.372 12-12v-77.52h-331.23zM293.692 409.562c-6.627 0-12 5.373-12 12v77.52h450.616c6.627 0 12-5.372 12-12v-77.52H293.692zM690 859c-86.709 0-157-70.067-157-156.5S603.291 546 690 546s157 70.067 157 156.5S776.709 859 690 859z m-72-88a8 8 0 0 0-8 8h152a8 8 0 0 0 8-8H618z m80-56v-32.8c18.258-3.706 32-19.848 32-39.2 0-22.091-17.909-40-40-40s-40 17.909-40 40c0 19.352 13.742 35.494 32 39.2V715h-40c-8.837 0-16 7.163-16 16v32h112c8.837 0 16-7.163 16-16v-32h-56z" p-id="5347" fill="#1296db"></path></svg>