<?xml version="1.0" standalone="no"?><!DOCTYPE svg PUBLIC "-//W3C//DTD SVG 1.1//EN" "http://www.w3.org/Graphics/SVG/1.1/DTD/svg11.dtd"><svg t="1638931894517" class="icon" viewBox="0 0 1024 1024" version="1.1" xmlns="http://www.w3.org/2000/svg" p-id="6683" xmlns:xlink="http://www.w3.org/1999/xlink" width="48" height="48"><defs><style type="text/css"></style></defs><path d="M512 0c283.105882 0 512 228.894118 512 512s-228.894118 512-512 512S0 795.105882 0 512 228.894118 0 512 0z m240.941176 286.117647H271.058824c-9.035294 0-15.058824 6.023529-15.058824 15.058824v337.317647c0 9.035294 6.023529 15.058824 15.058824 15.058823h177.694117v45.176471h-66.258823c-9.035294 0-15.058824 6.023529-15.058824 15.058823v9.035294c0 9.035294 6.023529 15.058824 15.058824 15.058824h259.011764c9.035294 0 15.058824-6.023529 15.058824-15.058824v-9.035294c0-9.035294-6.023529-15.058824-15.058824-15.058823h-66.258823v-45.176471H752.941176c9.035294 0 15.058824-6.023529 15.058824-15.058823V301.176471c0-9.035294-6.023529-15.058824-15.058824-15.058824z m-27.105882 45.176471v246.964706H301.176471V331.294118h424.658823z" p-id="6684" fill="#ffffff"></path></svg>