<?xml version="1.0" standalone="no"?><!DOCTYPE svg PUBLIC "-//W3C//DTD SVG 1.1//EN" "http://www.w3.org/Graphics/SVG/1.1/DTD/svg11.dtd"><svg t="1656213224622" class="icon" viewBox="0 0 1024 1024" version="1.1" xmlns="http://www.w3.org/2000/svg" p-id="7185" xmlns:xlink="http://www.w3.org/1999/xlink" width="200" height="200"><defs><style type="text/css">@font-face { font-family: feedback-iconfont; src: url("//at.alicdn.com/t/font_1031158_u69w8yhxdu.woff2?t=1630033759944") format("woff2"), url("//at.alicdn.com/t/font_1031158_u69w8yhxdu.woff?t=1630033759944") format("woff"), url("//at.alicdn.com/t/font_1031158_u69w8yhxdu.ttf?t=1630033759944") format("truetype"); }
</style></defs><path d="M644 382h68c37.554 0 68 30.444 68 68v386H576V450c0-37.556 30.446-68 68-68z" fill="#DFECFD" p-id="7186"></path><path d="M720 836h-84c-33.084 0-60-26.916-60-60V450c0-37.496 30.504-68 68-68h68c37.496 0 68 30.504 68 68v326c0 33.084-26.916 60-60 60z m-76-394c-4.412 0-8 3.588-8 8v326h84a0.26 0.26 0 0 0 0.038-0.002L720 450c0-4.412-3.588-8-8-8h-68z" fill="#DFECFD" p-id="7187"></path><path d="M320 196h236c44.184 0 80 35.818 80 80v560H240V276c0-44.182 35.818-80 80-80z" fill="#4988FD" p-id="7188"></path><path d="M576 836H300c-33.084 0-60-26.916-60-60V276c0-44.112 35.888-80 80-80h236c44.112 0 80 35.888 80 80v500c0 33.084-26.916 60-60 60zM320 256c-11.028 0-20 8.972-20 20v500h276a0.26 0.26 0 0 0 0.038-0.002L576 276c0-11.028-8.972-20-20-20H320z" fill="#4988FD" p-id="7189"></path><path d="M802 836H222c-16.568 0-30-13.432-30-30s13.432-30 30-30h580c16.568 0 30 13.432 30 30s-13.432 30-30 30z" fill="#4988FD" p-id="7190"></path><path d="M518 394h-160c-14.36 0-26-11.64-26-26s11.64-26 26-26h160c14.36 0 26 11.64 26 26s-11.64 26-26 26zM518 486h-160c-14.36 0-26-11.64-26-26s11.64-26 26-26h160c14.36 0 26 11.64 26 26s-11.64 26-26 26z" fill="#FFFFFF" p-id="7191"></path><path d="M544 836h-52v-183.868c0-7.718-6.28-14-14-14h-66v-52h66c36.392 0 66 29.608 66 66V836z" fill="#DFECFD" p-id="7192"></path><path d="M384 836h-52v-183.868c0-36.392 29.608-66 66-66h66v52h-66c-7.72 0-14 6.282-14 14V836z" fill="#DFECFD" p-id="7193"></path></svg>