<?xml version="1.0" standalone="no"?><!DOCTYPE svg PUBLIC "-//W3C//DTD SVG 1.1//EN" "http://www.w3.org/Graphics/SVG/1.1/DTD/svg11.dtd"><svg t="1656227492740" class="icon" viewBox="0 0 1024 1024" version="1.1" xmlns="http://www.w3.org/2000/svg" p-id="4345" xmlns:xlink="http://www.w3.org/1999/xlink" width="200" height="200"><defs><style type="text/css">@font-face { font-family: feedback-iconfont; src: url("//at.alicdn.com/t/font_1031158_u69w8yhxdu.woff2?t=1630033759944") format("woff2"), url("//at.alicdn.com/t/font_1031158_u69w8yhxdu.woff?t=1630033759944") format("woff"), url("//at.alicdn.com/t/font_1031158_u69w8yhxdu.ttf?t=1630033759944") format("truetype"); }
</style></defs><path d="M512 995.566933c267.0592 0 483.566933-216.507733 483.566933-483.566933S779.0592 28.433067 512 28.433067 28.433067 244.9408 28.433067 512 244.9408 995.566933 512 995.566933zM512 1024C229.239467 1024 0 794.760533 0 512 0 229.239467 229.239467 0 512 0c282.760533 0 512 229.239467 512 512 0 282.760533-229.239467 512-512 512z m0-284.433067a227.566933 227.566933 0 1 0 0-455.133866 227.566933 227.566933 0 0 0 0 455.133866z m0 56.866134a284.433067 284.433067 0 1 1 0-568.866134 284.433067 284.433067 0 0 1 0 568.866134zM512 682.666667a170.666667 170.666667 0 1 1 0-341.333334 170.666667 170.666667 0 0 1 0 341.333334z m18.500267-199.099734l63.522133-76.253866-21.845333-18.193067L512 461.346133 451.822933 389.12l-21.845333 18.193067 63.488 76.253866H426.666667V512h71.099733v56.900267H426.666667v28.433066h71.099733v56.900267h28.4672V597.333333H597.333333v-28.433066h-71.099733V512H597.333333v-28.433067h-66.833066z" p-id="4346" fill="#2c2c2c"></path></svg>