<?xml version="1.0" standalone="no"?><!DOCTYPE svg PUBLIC "-//W3C//DTD SVG 1.1//EN" "http://www.w3.org/Graphics/SVG/1.1/DTD/svg11.dtd"><svg t="1656335844176" class="icon" viewBox="0 0 1024 1024" version="1.1" xmlns="http://www.w3.org/2000/svg" p-id="4331" xmlns:xlink="http://www.w3.org/1999/xlink" width="200" height="200"><defs><style type="text/css">@font-face { font-family: feedback-iconfont; src: url("//at.alicdn.com/t/font_1031158_u69w8yhxdu.woff2?t=1630033759944") format("woff2"), url("//at.alicdn.com/t/font_1031158_u69w8yhxdu.woff?t=1630033759944") format("woff"), url("//at.alicdn.com/t/font_1031158_u69w8yhxdu.ttf?t=1630033759944") format("truetype"); }
</style></defs><path d="M513.024 993.792c-268.288 0-486.4-218.112-486.4-486.4 0-97.28 28.672-191.488 82.944-271.872 15.872-24.064 34.304-46.592 54.784-67.072 15.872-16.384 41.472-16.384 57.856-1.024 16.384 15.872 16.384 41.472 1.024 57.856-16.896 17.408-32.256 35.84-45.568 55.808C132.608 348.16 108.544 426.496 108.544 507.392c0 223.232 181.248 404.48 404.48 404.48s404.48-181.248 404.48-404.48-181.248-404.48-404.48-404.48c-28.16 0-55.808 3.072-82.944 8.704-22.016 4.608-44.032-9.728-48.64-31.744-4.608-22.016 9.728-44.032 31.744-48.64 32.768-6.656 66.048-10.24 99.84-10.24 268.288 0 486.4 218.112 486.4 486.4s-218.112 486.4-486.4 486.4z" fill="#ffffff" p-id="4332"></path><path d="M767.488 480.768H259.072c-22.528 0-40.96-18.432-40.96-40.96s18.432-40.96 40.96-40.96h409.6l-62.464-62.464c-15.872-15.872-15.872-41.984 0-57.856 15.872-15.872 41.984-15.872 57.856 0l132.096 132.096c11.776 11.776 15.36 29.184 8.704 44.544s-20.992 25.6-37.376 25.6zM391.168 748.544c-10.24 0-20.992-4.096-29.184-11.776L229.888 604.16c-11.776-11.776-15.36-29.184-8.704-44.544s21.504-25.088 37.888-25.088h508.416c22.528 0 40.96 18.432 40.96 40.96s-18.432 40.96-40.96 40.96h-409.6l62.464 62.464c15.872 15.872 15.872 41.984 0 57.856-8.192 7.68-18.432 11.776-29.184 11.776z" fill="#ffffff" p-id="4333"></path></svg>