<?xml version="1.0" standalone="no"?><!DOCTYPE svg PUBLIC "-//W3C//DTD SVG 1.1//EN" "http://www.w3.org/Graphics/SVG/1.1/DTD/svg11.dtd"><svg t="1656331733919" class="icon" viewBox="0 0 1024 1024" version="1.1" xmlns="http://www.w3.org/2000/svg" p-id="11870" xmlns:xlink="http://www.w3.org/1999/xlink" width="200" height="200"><defs><style type="text/css">@font-face { font-family: feedback-iconfont; src: url("//at.alicdn.com/t/font_1031158_u69w8yhxdu.woff2?t=1630033759944") format("woff2"), url("//at.alicdn.com/t/font_1031158_u69w8yhxdu.woff?t=1630033759944") format("woff"), url("//at.alicdn.com/t/font_1031158_u69w8yhxdu.ttf?t=1630033759944") format("truetype"); }
</style></defs><path d="M769.3 910.3H258.7c-92.9 0-168.5-75.6-168.5-168.5V362c0-92.9 75.6-168.5 168.5-168.5h510.5c92.9 0 168.5 75.6 168.5 168.5v379.8c0.1 92.9-75.5 168.5-168.4 168.5zM258.7 289.6c-39.9 0-72.4 32.5-72.4 72.4v379.8c0 39.9 32.5 72.4 72.4 72.4h510.5c39.9 0 72.4-32.5 72.4-72.4V362c0-39.9-32.5-72.4-72.4-72.4H258.7z" fill="#BDD2EF" p-id="11871"></path><path d="M699.7 116.1H426.4c-30.2 0-54.4 24.5-54.4 54.7l-0.3 437.3 191.3-82 191.3 82V170.8c0.1-30.2-24.4-54.7-54.6-54.7z" fill="#2867CE" p-id="11872"></path></svg>