<?xml version="1.0" standalone="no"?><!DOCTYPE svg PUBLIC "-//W3C//DTD SVG 1.1//EN" "http://www.w3.org/Graphics/SVG/1.1/DTD/svg11.dtd"><svg t="1656228703664" class="icon" viewBox="0 0 1024 1024" version="1.1" xmlns="http://www.w3.org/2000/svg" p-id="5791" xmlns:xlink="http://www.w3.org/1999/xlink" width="200" height="200"><defs><style type="text/css">@font-face { font-family: feedback-iconfont; src: url("//at.alicdn.com/t/font_1031158_u69w8yhxdu.woff2?t=1630033759944") format("woff2"), url("//at.alicdn.com/t/font_1031158_u69w8yhxdu.woff?t=1630033759944") format("woff"), url("//at.alicdn.com/t/font_1031158_u69w8yhxdu.ttf?t=1630033759944") format("truetype"); }
</style></defs><path d="M923.74 815.551L805.411 610.516C842.429 554.79 864 487.915 864 416c0-194.404-157.596-352-352-352S160 221.596 160 416c0 71.915 21.571 138.79 58.589 194.516L100.26 815.551c-8.795 15.239-3.527 34.907 11.706 43.705l147.053-62.84 19.127 158.823c15.233 8.798 34.892 3.529 43.687-11.711l107.005-185.412C455.502 764.574 483.351 768 512 768s56.498-3.426 83.162-9.884l107.005 185.412c8.795 15.239 28.454 20.509 43.687 11.711l19.127-158.823 147.053 62.84c15.233-8.799 20.501-28.466 11.706-43.705zM402.322 470.899C279.706 381.744 294.589 335.79 443.46 333.737c46.921-146.02 89.989-146.612 137.123 0 148.863-2.648 163.603 48.007 41.135 137.162 47.994 144.021 17.285 179.883-109.696 82.298-126.982 97.585-157.693 61.723-109.7-82.298z" p-id="5792" fill="#d81e06"></path></svg>