<?xml version="1.0" standalone="no"?><!DOCTYPE svg PUBLIC "-//W3C//DTD SVG 1.1//EN" "http://www.w3.org/Graphics/SVG/1.1/DTD/svg11.dtd"><svg t="1656315585120" class="icon" viewBox="0 0 1024 1024" version="1.1" xmlns="http://www.w3.org/2000/svg" p-id="3369" xmlns:xlink="http://www.w3.org/1999/xlink" width="200" height="200"><defs><style type="text/css">@font-face { font-family: feedback-iconfont; src: url("//at.alicdn.com/t/font_1031158_u69w8yhxdu.woff2?t=1630033759944") format("woff2"), url("//at.alicdn.com/t/font_1031158_u69w8yhxdu.woff?t=1630033759944") format("woff"), url("//at.alicdn.com/t/font_1031158_u69w8yhxdu.ttf?t=1630033759944") format("truetype"); }
</style></defs><path d="M177.6 65.77c5.78-0.66 11.61-0.87 17.43-0.77h596.03c10.19-0.21 20.44 0.55 30.42 2.77 33.36 7.25 62.85 30.11 78.22 60.6 8.54 16.48 12.75 35.06 12.8 53.6-0.03 112 0.06 224.02-0.04 336.02-0.74 7.83-5.73 15.18-12.9 18.51-6.5 3.18-14.5 3.1-20.94-0.19-33.13-16.22-69.85-24.98-106.72-25.7-41.93-0.88-84.08 8.68-121.4 27.85-30.02 15.3-56.92 36.63-78.75 62.28-24.93 29.21-43.21 64.09-52.82 101.28-10.92 41.92-10.98 86.6-0.16 128.54 7.25 28.11 19.32 54.97 35.61 79 2.07 2.99 4.35 5.96 5.33 9.53 2.54 7.96 0.53 17.26-5.38 23.23-3.75 4-8.99 6.45-14.42 7.03-117.96-0.25-235.97-0.01-353.95-0.12-32.84-1.14-64.74-17.23-85.3-42.85-14-17.08-22.88-38.28-25.29-60.23-0.96-7.36-0.53-14.79-0.62-22.18v-647c0.78-25.58 10.51-50.73 26.98-70.3 18.86-22.64 46.55-37.69 75.87-40.9m-38.22 68.67c-11.94 13.06-18.74 30.8-18.14 48.52 0.02 216.02 0.01 432.04 0 648.05-0.18 5.76 0.27 11.54 1.61 17.16 5.3 24.6 24.93 45.38 49.22 52 12.31 3.85 25.3 2.26 37.97 2.58h286.47c-38.46-75.19-42.71-166.72-12.05-245.34 26.74-69.68 80.36-128.53 147.25-161.64 71.85-36.25 158.37-41.62 234.29-15.05 0-99.58 0.01-199.15 0-298.73 0.08-20.72-9.39-41.31-25.51-54.4-12.37-10.31-28.38-16.07-44.48-16.09H190.95c-19.4 0.01-38.59 8.52-51.57 22.94z" fill="#0C00BF" p-id="3370"></path><path d="M259.47 258.73c4.09-0.98 8.32-0.71 12.48-0.73h449.12c7.29-0.14 14.65 3.05 19.16 8.84 5.17 6.33 6.47 15.45 3.54 23.04-3.1 8.49-11.67 14.83-20.77 14.88-153.01-0.02-306.02-0.01-459.03-0.01-10.25-0.06-19.53-8.15-21.66-18.07-3.03-11.97 5.12-25.25 17.16-27.95zM263.28 448.33c83.91-0.2 167.83 0 251.74-0.09 4.4-0.1 8.88 0.73 12.7 2.99 8.41 4.43 13.27 14.47 11.78 23.82-1.09 8.28-7.01 15.7-14.87 18.55-3.99 1.67-8.38 1.43-12.6 1.4-82.7-0.01-165.39 0.01-248.08-0.01-7.89-0.15-15.36-4.92-19.19-11.75-3.79-6.65-4.01-15.16-0.59-22 3.52-7.27 11.09-12.31 19.11-12.91zM758.3 557.36c35.59-1.63 71.59 5.82 103.43 21.86 41.05 20.47 74.98 54.83 94.84 96.18 18.27 37.38 24.66 80.33 18.68 121.46-5.31 37.35-21.13 73.11-45.05 102.27-23.69 29.07-55.35 51.58-90.6 64.36-41.98 15.32-88.89 16.62-131.7 3.81-39.58-11.73-75.41-35.63-101.61-67.52-18.26-22.14-31.93-48.05-39.77-75.66-11.02-38.6-10.64-80.37 1.1-118.76 11.23-37.14 33.19-70.89 62.4-96.4 35.27-31.09 81.3-49.64 128.28-51.6m-9.75 47.45c-40.74 4.68-79.19 25.69-105.41 57.17-26.11 30.81-39.94 71.66-37.91 111.99 1.27 30.08 11.16 59.74 28.26 84.53 17.22 25.18 41.62 45.42 69.62 57.57 37.51 16.44 81.29 17.84 119.81 3.94 30.76-10.99 57.98-31.55 77.08-58.03 24.97-34.1 35.58-78.21 29.05-119.96-6.43-44.15-32.31-84.82-69.13-109.9-32.18-22.26-72.56-32.05-111.37-27.31z" fill="#0C00BF" p-id="3371"></path><path d="M262.34 635.34c34.88-0.22 69.77-0.01 104.65-0.11 8.45-0.42 16.86 4.4 20.89 11.82 2.9 4.94 3.5 10.94 2.48 16.51-1.67 8.23-8.21 15.24-16.3 17.5-4.24 1.26-8.71 0.91-13.07 0.94h-89c-5.19-0.02-10.61 0.42-15.51-1.65-9.95-3.75-16.33-14.93-14.44-25.4 1.33-10.13 10.16-18.58 20.3-19.61zM734.32 681.13c7.27-3.83 16.6-3.52 23.48 1.05 6.7 4.15 10.74 11.95 10.68 19.79 0.05 23.18 0 46.35 0.02 69.53 23.14 0.01 46.28-0.03 69.42 0.02 7.6 0 15.25 3.64 19.48 10.06 4.96 6.95 5.47 16.71 1.45 24.21-3.78 7.22-11.63 12.24-19.83 12.22-31.69-0.02-63.38 0-95.07-0.01-11.54-0.14-21.77-10.39-21.94-21.91-0.03-31.7 0.01-63.39-0.02-95.09 0-8.23 5.06-16.12 12.33-19.87z" fill="#FC4E7F" p-id="3372"></path></svg>