<?xml version="1.0" standalone="no"?><!DOCTYPE svg PUBLIC "-//W3C//DTD SVG 1.1//EN" "http://www.w3.org/Graphics/SVG/1.1/DTD/svg11.dtd"><svg t="1656319959517" class="icon" viewBox="0 0 1027 1024" version="1.1" xmlns="http://www.w3.org/2000/svg" p-id="2319" xmlns:xlink="http://www.w3.org/1999/xlink" width="200.5859375" height="200"><defs><style type="text/css">@font-face { font-family: feedback-iconfont; src: url("//at.alicdn.com/t/font_1031158_u69w8yhxdu.woff2?t=1630033759944") format("woff2"), url("//at.alicdn.com/t/font_1031158_u69w8yhxdu.woff?t=1630033759944") format("woff"), url("//at.alicdn.com/t/font_1031158_u69w8yhxdu.ttf?t=1630033759944") format("truetype"); }
</style></defs><path d="M1027.545093 641.839017a7.26744 7.26744 0 0 0-2.954244-4.135942l-1.004443-0.590848a141.803704 141.803704 0 0 1-1.004443-250.992557l3.308753-12.348739-137.963187-237.166696-13.471352-3.545092a204.374589 204.374589 0 0 1-36.278115 15.362068A142.571808 142.571808 0 0 1 663.582251 48.449599a202.188448 202.188448 0 0 1-4.963129-39.468698L649.520051 0 374.657204 0.590849l-7.621949 4.431366q-39.586867 125.732618-105.348336 143.45808a142.689977 142.689977 0 0 1-113.324793-16.957359l-11.462466 6.617506L0 375.897986l3.190583 11.816976a141.803704 141.803704 0 0 1 70.015579 87.977381A141.803704 141.803704 0 0 1 4.017772 637.407651L0.590849 649.933645l137.963187 237.166695 14.062201 3.722348A142.985402 142.985402 0 0 1 365.144539 974.900467a141.27194 141.27194 0 0 1 4.84496 42.186602l6.972015 6.912931 274.862847-0.590849 10.280769-10.280768a142.808147 142.808147 0 0 1 217.432346-124.610006l10.044429-2.717904 136.89966-237.757544 0.590849-1.004443a7.326525 7.326525 0 0 0 0.472679-5.199469zM856.730714 805.031447a211.701114 211.701114 0 0 0-256.132941 149.661993l-169.573597 0.354509a211.405689 211.405689 0 0 0-258.67359-146.530495l-86.027581-147.712192a210.401246 210.401246 0 0 0 53.176389-202.779297 210.046737 210.046737 0 0 0-53.708153-93.176851l85.968496-149.366568a211.464774 211.464774 0 0 0 107.888985-0.649934 211.16935 211.16935 0 0 0 148.184871-145.644221l170.10536-0.35451a211.405689 211.405689 0 0 0 256.369281 146.530495l85.732156 147.357683a210.401246 210.401246 0 0 0 0 297.43327z" fill="#467CFD" p-id="2320"></path><path d="M702.341931 321.5399a267.122728 267.122728 0 1 0 57.371415 85.141307 266.886389 266.886389 0 0 0-57.371415-85.141307z m-189.426115 409.221856A219.795742 219.795742 0 1 1 732.652472 510.966015a220.032081 220.032081 0 0 1-219.736656 219.795741z" fill="#8BAEF7" p-id="2321"></path><path d="M560.124632 414.775835l98.25815 96.19018-98.25815 96.190179 25.229243 25.229243 115.038255-117.165311 1.654376-1.890716v-4.84496L585.353875 389.546593 560.124632 414.775835zM442.959321 389.546593L323.785125 510.966015l119.174196 121.419422 25.288328-25.229243-98.317235-96.190179L468.247649 414.775835l-25.288328-25.229242zM476.029127 618.270059l44.000508-221.01289 32.159898 6.404801-44.000508 221.01289z" fill="#8BAEF7" p-id="2322"></path></svg>