<?xml version="1.0" standalone="no"?><!DOCTYPE svg PUBLIC "-//W3C//DTD SVG 1.1//EN" "http://www.w3.org/Graphics/SVG/1.1/DTD/svg11.dtd"><svg t="1655775122550" class="icon" viewBox="0 0 1024 1024" version="1.1" xmlns="http://www.w3.org/2000/svg" p-id="5032" xmlns:xlink="http://www.w3.org/1999/xlink" width="200" height="200"><defs><style type="text/css">@font-face { font-family: feedback-iconfont; src: url("//at.alicdn.com/t/font_1031158_u69w8yhxdu.woff2?t=1630033759944") format("woff2"), url("//at.alicdn.com/t/font_1031158_u69w8yhxdu.woff?t=1630033759944") format("woff"), url("//at.alicdn.com/t/font_1031158_u69w8yhxdu.ttf?t=1630033759944") format("truetype"); }
</style></defs><path d="M537.6 25.6c-179.2 0-339.2 96-419.2 246.4L0 153.6v332.8h332.8l-144-144C256 214.4 384 128 537.6 128c211.2 0 384 172.8 384 384s-172.8 384-384 384c-169.6 0-307.2-108.8-364.8-256H67.2c57.6 204.8 246.4 358.4 470.4 358.4C809.6 998.4 1024 777.6 1024 512S803.2 25.6 537.6 25.6z m-76.8 256V544l240 144 41.6-67.2-204.8-121.6V284.8h-76.8z" fill="#666666" p-id="5033"></path></svg>