<?xml version="1.0" standalone="no"?><!DOCTYPE svg PUBLIC "-//W3C//DTD SVG 1.1//EN" "http://www.w3.org/Graphics/SVG/1.1/DTD/svg11.dtd"><svg t="1655192364890" class="icon" viewBox="0 0 1024 1024" version="1.1" xmlns="http://www.w3.org/2000/svg" p-id="1472" xmlns:xlink="http://www.w3.org/1999/xlink" width="200" height="200"><defs><style type="text/css">@font-face { font-family: feedback-iconfont; src: url("//at.alicdn.com/t/font_1031158_u69w8yhxdu.woff2?t=1630033759944") format("woff2"), url("//at.alicdn.com/t/font_1031158_u69w8yhxdu.woff?t=1630033759944") format("woff"), url("//at.alicdn.com/t/font_1031158_u69w8yhxdu.ttf?t=1630033759944") format("truetype"); }
</style></defs><path d="M610.439 209.3l12.051 12.107c4.022 4.033 12.059 8.072 16.073 8.072H779.19V205.26c0-4.032-4.014-12.106-8.036-16.145-4.016-8.067-12.051-16.14-24.105-24.212-8.035-12.108-24.108-24.22-40.182-36.325-16.068-12.108-28.126-24.22-40.177-32.291-12.053-8.068-20.09-16.14-28.127-20.18-8.035-4.034-12.051-8.073-20.088-8.073-4.02 0-12.052-4.034-16.074-4.034v113.009c0 4.04 0 8.073 4.022 16.145 0 4.034 4.016 8.074 4.016 16.146zM489.9 838.92c-8.037-24.214-12.053-48.433-12.053-76.685v-24.219H244.81c-16.073 0-32.146-4.032-44.2-16.14-12.057-12.111-16.072-24.217-16.072-40.363 0-16.141 4.015-28.253 16.073-40.359 12.053-12.107 28.126-16.145 44.199-16.145h277.232c24.11-36.325 56.256-64.578 96.433-84.756 40.177-20.18 84.377-32.287 128.574-32.287h32.141V285.984H638.563c-16.073 0-32.14-4.04-44.197-12.106-12.052-8.074-24.105-16.147-32.14-28.253-8.038-12.112-16.074-24.218-20.09-36.325V64H64v867.747h482.152-4.016c-20.094-24.212-44.2-68.61-52.235-92.828z m-289.29-423.782c12.053-12.113 24.104-16.145 44.199-16.145h357.591c16.074 0 32.148 4.032 40.178 16.145 12.058 12.106 16.073 24.212 16.073 40.358 0 16.145-4.015 28.252-16.073 40.358C630.528 507.966 618.475 512 602.401 512H244.81c-16.073 0-32.146-4.034-44.2-16.146-12.057-12.106-16.072-24.213-16.072-40.358 0-16.146 8.037-28.252 16.073-40.358z" p-id="1473"></path><path d="M943.927 685.551c-12.052-24.217-24.11-44.397-44.198-64.576-20.089-16.146-40.178-32.291-68.304-40.359-24.109-12.112-52.235-16.146-80.36-16.146-28.124 0-56.25 4.034-80.355 16.146-24.11 12.107-48.22 24.213-68.309 40.359-20.087 16.145-32.14 40.359-44.197 64.576-12.052 24.214-16.068 48.433-16.068 76.684 0 28.252 4.016 52.47 16.068 76.684 12.057 24.218 28.124 44.397 44.197 64.577 20.09 16.145 40.178 32.29 68.309 40.364 24.104 12.106 52.23 16.14 80.355 16.14 28.125 0 56.251-4.034 80.36-16.14 24.105-12.113 48.215-24.219 68.304-40.364 20.088-16.146 32.146-40.36 44.198-64.577C955.979 814.706 960 790.487 960 762.235c0-28.251-4.021-52.47-16.073-76.684z m-212.95 169.514l-92.414-100.903 24.11-24.212 64.288 48.43 120.537-100.9 24.105 24.217-140.627 153.368z" p-id="1474"></path></svg>