<?xml version="1.0" standalone="no"?><!DOCTYPE svg PUBLIC "-//W3C//DTD SVG 1.1//EN" "http://www.w3.org/Graphics/SVG/1.1/DTD/svg11.dtd"><svg t="1657894066616" class="icon" viewBox="0 0 1024 1024" version="1.1" xmlns="http://www.w3.org/2000/svg" p-id="4516" xmlns:xlink="http://www.w3.org/1999/xlink" width="200" height="200"><defs><style type="text/css">@font-face { font-family: feedback-iconfont; src: url("//at.alicdn.com/t/font_1031158_u69w8yhxdu.woff2?t=1630033759944") format("woff2"), url("//at.alicdn.com/t/font_1031158_u69w8yhxdu.woff?t=1630033759944") format("woff"), url("//at.alicdn.com/t/font_1031158_u69w8yhxdu.ttf?t=1630033759944") format("truetype"); }
</style></defs><path d="M511.8 63.3c-246.7 0-448.5 201.8-448.5 448.5s201.8 448.5 448.5 448.5 448.5-201.8 448.5-448.5S758.5 63.3 511.8 63.3z m214.3 603c15 15 15 42.4 0 57.3-7.5 7.5-17.4 12.5-29.9 12.5-10 0-22.4-5-29.9-12.5L521.8 579.1 377.3 723.6c-15 15-42.4 15-57.3 0s-15-42.4 0-57.3l144.5-144.5L320 377.3c-7.5-7.5-12.5-17.4-12.5-29.9 0-10 5-22.4 12.5-29.9 15-15 42.4-15 57.3 0L521.8 462l144.5-144.5c7.5-7.5 17.4-12.5 29.9-12.5 10 0 22.4 5 29.9 12.5s12.5 17.4 12.5 29.9c0 10-5 22.4-12.5 29.9L581.6 521.8l144.5 144.5z" p-id="4517" fill="#d81e06"></path></svg>