<?xml version="1.0" standalone="no"?><!DOCTYPE svg PUBLIC "-//W3C//DTD SVG 1.1//EN" "http://www.w3.org/Graphics/SVG/1.1/DTD/svg11.dtd"><svg t="1655196431168" class="icon" viewBox="0 0 1024 1024" version="1.1" xmlns="http://www.w3.org/2000/svg" p-id="7520" xmlns:xlink="http://www.w3.org/1999/xlink" width="200" height="200"><defs><style type="text/css">@font-face { font-family: feedback-iconfont; src: url("//at.alicdn.com/t/font_1031158_u69w8yhxdu.woff2?t=1630033759944") format("woff2"), url("//at.alicdn.com/t/font_1031158_u69w8yhxdu.woff?t=1630033759944") format("woff"), url("//at.alicdn.com/t/font_1031158_u69w8yhxdu.ttf?t=1630033759944") format("truetype"); }
</style></defs><path d="M255.895296 0a51.2 51.2 0 0 0-51.2 51.2v921.6a51.2 51.2 0 0 0 102.4 0V51.2a51.2 51.2 0 0 0-51.2-51.2zM804.247296 270.848l-256-256a58.88 58.88 0 0 0-16.896-10.752 51.2 51.2 0 0 0-38.912 0 51.2 51.2 0 0 0-27.648 27.648A51.2 51.2 0 0 0 460.695296 51.2v921.6a51.2 51.2 0 0 0 102.4 0V174.592l168.448 168.96a51.2 51.2 0 0 0 72.704-72.704z" p-id="7521"></path></svg>