<?xml version="1.0" standalone="no"?><!DOCTYPE svg PUBLIC "-//W3C//DTD SVG 1.1//EN" "http://www.w3.org/Graphics/SVG/1.1/DTD/svg11.dtd"><svg t="1656406690034" class="icon" viewBox="0 0 1110 1024" version="1.1" xmlns="http://www.w3.org/2000/svg" p-id="4179" xmlns:xlink="http://www.w3.org/1999/xlink" width="216.796875" height="200"><defs><style type="text/css">@font-face { font-family: feedback-iconfont; src: url("//at.alicdn.com/t/font_1031158_u69w8yhxdu.woff2?t=1630033759944") format("woff2"), url("//at.alicdn.com/t/font_1031158_u69w8yhxdu.woff?t=1630033759944") format("woff"), url("//at.alicdn.com/t/font_1031158_u69w8yhxdu.ttf?t=1630033759944") format("truetype"); }
</style></defs><path d="M985.327451 133.328929v-0.919771a131.087288 131.087288 0 1 0-262.161246 0v0.906441a127.394876 127.394876 0 0 0-125.382045 127.368216 127.394876 127.394876 0 0 0 127.394876 127.394876H982.154909a127.381546 127.381546 0 0 0 127.381546-127.394876 127.394876 127.394876 0 0 0-124.209004-127.354886z" fill="#E3E2E4" p-id="4180"></path><path d="M1021.145179 474.803715a206.615107 206.615107 0 0 0-57.41234-103.894073 209.441069 209.441069 0 0 0-30.832306-24.887123 205.668677 205.668677 0 0 0-115.89108-34.071498l-13.649927 0.1333-1.333-5.931853a270.17258 270.17258 0 0 0-15.809389-50.853976 271.932141 271.932141 0 0 0-195.871121-160.626583 275.811173 275.811173 0 0 0-109.599317 0 270.77243 270.77243 0 0 0-97.30905 40.949781 271.932141 271.932141 0 0 0-114.41145 170.784048c-0.58652 2.852621-1.119721 5.705243-1.5996 8.584525-6.278433-1.919521-12.650177-3.559112-19.07524-4.865453a209.441069 209.441069 0 0 0-83.259223 0 206.615107 206.615107 0 0 0-104.520585 56.345939 208.108068 208.108068 0 0 0-25.220373 30.565706 206.015257 206.015257 0 0 0-31.112236 73.941548 208.467978 208.467978 0 0 0 0 83.259224 205.668677 205.668677 0 0 0 31.112236 73.954878 207.201627 207.201627 0 0 0 90.883987 74.874649 205.695337 205.695337 0 0 0 38.830311 11.997006 26.660014 26.660014 0 0 0 10.664005-52.240297 152.508609 152.508609 0 0 1-28.752825-8.917775 153.80162 153.80162 0 0 1-81.632962-81.646292 151.588839 151.588839 0 0 1-8.931105-28.752825 155.00132 155.00132 0 0 1 0-61.877892 152.535269 152.535269 0 0 1 23.060912-54.786328 153.68165 153.68165 0 0 1 67.529815-55.559469 152.548599 152.548599 0 0 1 28.752825-8.931105 155.961081 155.961081 0 0 1 61.877892 0A151.815449 151.815449 0 0 1 265.267137 370.829662l1.119721 0.45322a153.161779 153.161779 0 0 1 26.033504 14.129807c0.94643 0.63984 1.892861 1.333001 2.825961 1.959511a154.38814 154.38814 0 0 1 38.65702 39.510141 26.660014 26.660014 0 0 0 44.175643-29.859216A207.734828 207.734828 0 0 0 322.292907 341.237046c-1.412981-0.95976-2.852621-1.906191-4.292262-2.825961a214.013261 214.013261 0 0 1 3.252521-21.328011 217.639023 217.639023 0 0 1 32.898457-78.167161 220.118404 220.118404 0 0 1 59.118581-59.11858 217.279113 217.279113 0 0 1 78.167161-32.898457 221.931285 221.931285 0 0 1 88.231315 0 218.612113 218.612113 0 0 1 170.170869 170.197528l0.97309 4.358912 7.638094 34.004848a12.876787 12.876787 0 0 0 12.343586 10.157465h0.279931l29.965855-0.17329 13.516627-0.14663h3.012582a155.04131 155.04131 0 0 1 30.952276 2.785971 153.135119 153.135119 0 0 1 120.489932 117.997221 154.48145 154.48145 0 0 1 0.65317 61.837902 152.295329 152.295329 0 0 1-8.611184 28.832805 153.055139 153.055139 0 0 1-140.258333 95.1096l-33.031757 0.34658a26.660014 26.660014 0 0 0 0.2666 53.320027h0.29326l33.031758-0.34658a207.441567 207.441567 0 0 0 41.562961-4.638842 205.935277 205.935277 0 0 0 73.594968-31.885377 206.988347 206.988347 0 0 0 84.632214-213.813311z" fill="#333333" p-id="4181"></path><path d="M653.117018 513.993936H448.821333l-102.147843 305.990308h150.922338L448.821333 1024l204.295685-306.003639H499.888589L653.117018 513.993936z" fill="#FFCA5F" p-id="4182"></path></svg>