<?xml version="1.0" standalone="no"?><!DOCTYPE svg PUBLIC "-//W3C//DTD SVG 1.1//EN" "http://www.w3.org/Graphics/SVG/1.1/DTD/svg11.dtd"><svg t="1655104006367" class="icon" viewBox="0 0 1458 1024" version="1.1" xmlns="http://www.w3.org/2000/svg" p-id="2378" xmlns:xlink="http://www.w3.org/1999/xlink" width="284.765625" height="200"><defs><style type="text/css">@font-face { font-family: feedback-iconfont; src: url("//at.alicdn.com/t/font_1031158_u69w8yhxdu.woff2?t=1630033759944") format("woff2"), url("//at.alicdn.com/t/font_1031158_u69w8yhxdu.woff?t=1630033759944") format("woff"), url("//at.alicdn.com/t/font_1031158_u69w8yhxdu.ttf?t=1630033759944") format("truetype"); }
</style></defs><path d="M859.025871 326.00727H532.580714c-12.589267 0-22.441736-9.85247-22.441736-22.441737s9.85247-22.441736 22.441736-22.441736h326.445157c12.589267 0 22.441736 9.85247 22.441736 22.441736s-9.85247 22.441736-22.441736 22.441737zM859.025871 476.640582H532.580714c-12.589267 0-22.441736-9.85247-22.441736-22.441737s9.85247-22.441736 22.441736-22.441736h326.445157c12.589267 0 22.441736 9.85247 22.441736 22.441736s-9.85247 22.441736-22.441736 22.441737z" fill="#515151" p-id="2379"></path><path d="M612.276245 948.245456H367.935001c-12.589267 0-22.441736-9.85247-22.441736-22.441736V99.40047c0-12.589267 9.85247-22.441736 22.441736-22.441736h642.599957c12.589267 0 22.441736 9.85247 22.441736 22.441736v242.589695c0 12.589267-9.85247 22.441736-22.441736 22.441736s-22.441736-9.85247-22.441736-22.441736V121.842207h-597.716485v781.519777h222.00898c12.589267 0 22.441736 9.85247 22.441736 22.441736-0.109472 12.479795-9.961941 22.441736-22.551208 22.441736z" fill="#515151" p-id="2380"></path><path d="M804.289929 623.113962H529.077614c-10.618773 0-18.938636-8.319863-18.938636-18.938636 0-10.618773 8.319863-18.938636 18.938636-18.938636h275.212315c10.618773 0 18.938636 8.319863 18.938636 18.938636 0 10.618773-8.319863 18.938636-18.938636 18.938636z" fill="#515151" p-id="2381"></path><path d="M994.223648 656.064999c-76.958734 0-139.357708 62.398974-139.357708 139.357708s62.398974 139.357708 139.357708 139.357708 139.357708-62.398974 139.357708-139.357708-62.398974-139.357708-139.357708-139.357708z m-5.364123 208.981826l-64.259995-68.967287 16.420782-13.902929 37.220441 30.761599c15.216592-19.15758 49.043404-57.034851 95.678426-87.249091l3.940988 9.524054c-42.803507 41.599316-77.943981 100.057302-89.000642 129.833654z m0 0" fill="#515151" p-id="2382"></path></svg>