<?xml version="1.0" standalone="no"?><!DOCTYPE svg PUBLIC "-//W3C//DTD SVG 1.1//EN" "http://www.w3.org/Graphics/SVG/1.1/DTD/svg11.dtd"><svg t="1644997032471" class="icon" viewBox="0 0 1024 1024" version="1.1" xmlns="http://www.w3.org/2000/svg" p-id="11621" xmlns:xlink="http://www.w3.org/1999/xlink" width="200" height="200"><defs><style type="text/css"></style></defs><path d="M512.4 139.4c-206.5 0-373.9 167.4-373.9 373.9s167.4 373.9 373.9 373.9 373.9-167.4 373.9-373.9-167.4-373.9-373.9-373.9z m188.5 540.9c0 8.9-7.2 16.1-16.1 16.1H460.9c-8.9 0-16.1-7.2-16.1-16.1v-73.5h147.6c12.3 0 18.8-8.9 18.8-20.8V504.3h-38.4v48c0 8.9-7.2 16.1-16.1 16.1H428.9c-0.1 0-0.2-0.1-0.3-0.1h-95.8c-8.9 0-16.1-7.2-16.1-16.1V328.3c0-8.9 7.2-16.1 16.1-16.1h223.9c8.9 0 16.1 7.2 16.1 16.1v73.5H424.1c-10.3 0-17.8 10-17.8 16.3v86.2h38.4v-48c0-8.8 7.2-16 16-16h224c8.9 0 16.1 7.2 16.1 16.1v223.9z" fill="#1a7dce" p-id="11622"></path></svg>