<?xml version="1.0" standalone="no"?><!DOCTYPE svg PUBLIC "-//W3C//DTD SVG 1.1//EN" "http://www.w3.org/Graphics/SVG/1.1/DTD/svg11.dtd"><svg t="1657621382203" class="icon" viewBox="0 0 1024 1024" version="1.1" xmlns="http://www.w3.org/2000/svg" p-id="2289" xmlns:xlink="http://www.w3.org/1999/xlink" width="200" height="200"><defs><style type="text/css">@font-face { font-family: feedback-iconfont; src: url("//at.alicdn.com/t/font_1031158_u69w8yhxdu.woff2?t=1630033759944") format("woff2"), url("//at.alicdn.com/t/font_1031158_u69w8yhxdu.woff?t=1630033759944") format("woff"), url("//at.alicdn.com/t/font_1031158_u69w8yhxdu.ttf?t=1630033759944") format("truetype"); }
</style></defs><path d="M445.968 377.657c0-14.855-11.059-26.862-24.699-26.862h-139.888c-13.642 0-24.696 12.007-24.696 26.862 0 14.855 11.055 26.875 24.696 26.875h139.888c13.641 0 24.699-12.02 24.699-26.875zM284.511 270.115h320.613c15.38 0 27.82-12.02 27.82-26.875 0-14.854-12.44-26.875-27.82-26.875h-320.613c-15.38 0-27.826 12.021-27.826 26.875 0 14.855 12.446 26.875 27.826 26.875zM690.076 574.275l-28.555 49.447c27.32 15.747 36.691 50.785 20.893 78.132l49.523 28.555c31.521-54.695 12.809-124.587-41.861-156.134zM592.487 632.855a57.278 57.278 0 0 1 40.472-16.745v-57.149c-63.175 0-114.353 51.166-114.353 114.286h57.163c0.009-15.17 6.075-29.736 16.718-40.392zM583.388 701.854l-49.44 28.555c31.541 54.643 101.464 73.37 156.128 41.835l-28.555-49.551c-27.369 15.8-62.316 6.456-78.133-20.839z" p-id="2290"></path><path d="M901.693 673.273c0-99.208-54.195-185.805-134.378-232.351v-223.915c0-74.432-60.574-135.006-135.104-135.006h-374.801c-74.522 0-135.103 60.562-135.103 134.994v590.012c0 74.432 60.58 134.993 135.064 134.993h384.916c8.189 0 16.35-0.971 24.486-2.362 132.248-16.731 234.92-129.693 234.92-266.365z m-644.321 214.99c-44.826 0-81.313-36.429-81.313-81.256v-590c0-44.826 36.486-81.255 81.351-81.255h27.402c0.522 0.052 0.978 0.315 1.503 0.315h140.334c0.524 0 0.977-0.263 1.502-0.315h204.059c44.873 0 81.355 36.429 81.355 81.255v199.926c-25.459-8.031-52.537-12.388-80.625-12.388-148.191 0-268.754 120.559-268.754 268.727 0 87.949 42.679 165.937 108.188 214.99h-215.002z m421.916-5.171h-7.19a117.689 117.689 0 0 1-14.364 3.622c-0.551 0.079-1.077 0.184-1.619 0.263-0.98 0.157-1.916 0.131-2.895 0.262-6.693 0.63-13.439 1.01-20.288 1.01-118.551 0-215.004-96.439-215.004-214.99 0-118.537 96.453-214.976 215.004-214.976 118.558 0 215.003 96.439 215.003 214.976 0.008 102.634-72.324 188.549-168.647 209.833z" p-id="2291"></path></svg>