<?xml version="1.0" standalone="no"?><!DOCTYPE svg PUBLIC "-//W3C//DTD SVG 1.1//EN" "http://www.w3.org/Graphics/SVG/1.1/DTD/svg11.dtd"><svg t="1657893985694" class="icon" viewBox="0 0 1024 1024" version="1.1" xmlns="http://www.w3.org/2000/svg" p-id="1776" xmlns:xlink="http://www.w3.org/1999/xlink" width="200" height="200"><defs><style type="text/css">@font-face { font-family: feedback-iconfont; src: url("//at.alicdn.com/t/font_1031158_u69w8yhxdu.woff2?t=1630033759944") format("woff2"), url("//at.alicdn.com/t/font_1031158_u69w8yhxdu.woff?t=1630033759944") format("woff"), url("//at.alicdn.com/t/font_1031158_u69w8yhxdu.ttf?t=1630033759944") format("truetype"); }
</style></defs><path d="M418.133333 708.266667c12.8 12.8 34.133333 12.8 51.2 0l337.066667-311.466667c12.8-12.8 12.8-34.133333 0-51.2-12.8-12.8-34.133333-17.066667-51.2 0l-307.2 290.133333-145.066667-149.333333c-12.8-12.8-34.133333-12.8-51.2 0-12.8 12.8-12.8 34.133333 0 51.2l166.4 170.666667zM0 512C0 230.4 230.4 0 512 0s512 230.4 512 512-230.4 512-512 512S0 793.6 0 512z" p-id="1777" fill="#2962ff"></path></svg>